<svg width="150" height="150" viewBox="0 0 150 150" fill="none" xmlns="http://www.w3.org/2000/svg">
<path d="M96.4286 0V12.5H53.5714V0H25V33.3333H53.5714V20.8333H78.6536C76.2943 24.4202 75.0106 28.8121 75 33.3333V66.6667C74.9962 69.9805 73.8662 73.1574 71.8577 75.5006C69.8492 77.8439 67.1262 79.1623 64.2857 79.1667H53.5714V66.6667H25V100H53.5714V87.5H64.2857C69.02 87.4934 73.5587 85.2963 76.9064 81.3908C80.254 77.4852 82.1372 72.19 82.1429 66.6667V33.3333C82.1429 30.0203 83.2702 26.8428 85.2772 24.4989C87.2842 22.1551 90.0067 20.8366 92.8464 20.8333H96.4286V33.3333H125V0H96.4286ZM46.4286 25H32.1429V8.33333H46.4286V25ZM46.4286 91.6667H32.1429V75H46.4286V91.6667ZM117.857 25H103.571V8.33333H117.857V25Z" fill="#5048EF"/>
</svg>
